Coordinates
version=1
nRows=14
nColumns=24
inDegrees=yes

Units are S.I. units (second, meters, Newtons, ...)
Angles are in degrees.

endheader
time	pelvis_tilt	pelvis_list	pelvis_rotation	pelvis_tx	pelvis_ty	pelvis_tz	hip_flexion_r	hip_adduction_r	hip_rotation_r	knee_angle_r	ankle_angle_r	subtalar_angle_r	mtp_angle_r	hip_flexion_l	hip_adduction_l	hip_rotation_l	knee_angle_l	ankle_angle_l	subtalar_angle_l	mtp_angle_l	lumbar_extension	lumbar_bending	lumbar_rotation
     26.67000000	      0.40386689	     -3.76650295	   -261.92653194	      0.00253321	      0.08144458	     -1.84846698	     32.47367051	     -4.54067412	    -19.93595201	    -18.07812762	     -8.84740875	     -9.83309793	      2.56572781	    -15.13422673	     -3.35306014	     -4.20962517	    -16.50349595	     10.70745159	      7.42645565	     10.78375997	     -8.71713730	      0.79126441	    -10.76386828
     26.67500000	      0.57371522	     -3.87005389	   -261.94262380	      0.00351016	      0.08125343	     -1.84961190	     32.56727389	     -4.36586934	    -19.75148486	    -18.70615183	     -8.94448833	    -10.73401010	      0.89009218	    -14.92455153	     -3.72763307	     -4.44726173	    -17.31030707	      9.64940506	      7.90234114	     13.17282732	     -8.44189049	      0.91922478	    -10.73064831
     26.68000000	      0.70649631	     -3.96288306	   -262.04461795	      0.00454422	      0.08111008	     -1.85092211	     32.67990155	     -4.17055573	    -19.42883626	    -19.45668988	     -8.95099241	    -11.46146416	      0.85297666	    -14.76570690	     -4.02433849	     -4.65080187	    -18.06681178	      8.89705828	      8.07925836	     13.21937795	     -8.16765738	      1.00472888	    -10.62398785
     26.68500000	      0.90571609	     -4.03451489	   -262.14931704	      0.00569807	      0.08104898	     -1.85226064	     32.78597984	     -3.87296219	    -19.04320549	    -20.25319300	     -8.74110988	    -12.33905348	     -0.57417929	    -14.59089170	     -4.43317404	     -4.97990895	    -18.85035113	      7.59797974	      8.60118275	     16.07070157	     -7.90459851	      1.15152591	    -10.49562082
     26.69000000	      1.06509048	     -4.13169480	   -262.29849948	      0.00679771	      0.08101280	     -1.85354989	     32.97048556	     -3.61376009	    -18.64336693	    -21.16260155	     -8.63673324	    -12.96327866	     -1.08305646	    -14.36267437	     -4.78599431	     -5.36151367	    -19.66178935	      6.32105494	      9.12154265	     17.98735203	     -7.64409851	      1.26149777	    -10.35296446
     26.69500000	      1.18514933	     -4.23828970	   -262.47762797	      0.00794836	      0.08100155	     -1.85479702	     33.26160805	     -3.40209293	    -18.21044013	    -22.28307766	     -8.41911300	    -13.30917729	     -1.39623928	    -14.09875900	     -5.09140749	     -5.70245396	    -20.52729295	      5.03476312	      9.52722749	     19.79658867	     -7.35608644	      1.32461871	    -10.15975553
     26.70000000	      1.30556945	     -4.32884429	   -262.68605105	      0.00908208	      0.08110321	     -1.85600769	     33.50680007	     -3.16775229	    -17.76208390	    -23.31504560	     -8.37337071	    -13.56682627	     -1.84097167	    -13.80014826	     -5.39282849	     -6.04810617	    -21.44116538	      3.65648207	      9.91830856	     21.36459377	     -7.10238136	      1.39675525	     -9.95805999
     26.70500000	      1.38257235	     -4.38292691	   -262.89478979	      0.01018518	      0.08127972	     -1.85718095	     33.68423197	     -2.96990736	    -17.36955149	    -24.29285679	     -8.25428536	    -13.61383735	     -2.27268076	    -13.51929835	     -5.62618102	     -6.27783211	    -22.35496702	      2.03278183	      9.94994297	     23.34121263	     -6.89385156	      1.43554610	     -9.76786637
     26.71000000	      1.49319712	     -4.41841815	   -263.11233393	      0.01134584	      0.08154794	     -1.85838265	     33.79667283	     -2.70797164	    -17.01724392	    -25.18469371	     -8.14055244	    -13.88361721	     -2.49245836	    -13.20996124	     -5.94705348	     -6.67770777	    -23.30794739	      0.29809326	     10.40364685	     25.41603759	     -6.71217113	      1.50744476	     -9.57912442
     26.71500000	      1.58334290	     -4.40175429	   -263.36521127	      0.01256546	      0.08194206	     -1.85954534	     33.82747953	     -2.46996811	    -16.83785964	    -26.05977922	     -7.94247645	    -13.96660094	     -2.48862644	    -12.88741369	     -6.24537643	     -7.10899794	    -24.37289302	     -1.48709958	     10.57147743	     27.27683615	     -6.56185056	      1.55218462	     -9.31574532
     26.72000000	      1.66142309	     -4.36016670	   -263.61604653	      0.01379863	      0.08239166	     -1.86072592	     33.75337508	     -2.22156976	    -16.68579205	    -26.81227537	     -7.65388044	    -14.09947212	     -2.53170066	    -12.59146396	     -6.54224757	     -7.46369397	    -25.39234823	     -3.44239774	     10.75947496	     29.14874400	     -6.44948011	      1.59007291	     -9.07562805
     26.72500000	      1.71933699	     -4.28421838	   -263.83170260	      0.01496490	      0.08293682	     -1.86186353	     33.58573941	     -2.03005956	    -16.68920720	    -27.50840635	     -7.09400245	    -13.97227477	     -2.42441141	    -12.24708537	     -6.79835355	     -7.62194622	    -26.51157044	     -5.15757540	     10.56768128	     29.76005025	     -6.37595525	      1.61690702	     -8.88836112
     26.73000000	      1.78435364	     -4.19984275	   -264.04882878	      0.01613945	      0.08356306	     -1.86299747	     33.32083960	     -1.79271056	    -16.67231328	    -28.05896358	     -6.67042320	    -14.06326639	     -1.86325232	    -11.84350849	     -7.10239032	     -7.93773592	    -27.70188516	     -7.31238330	     10.62691876	     31.86068315	     -6.30288901	      1.65184137	     -8.70672290
     26.73500000	      1.87137896	     -4.05779352	   -264.30316007	      0.01744535	      0.08427538	     -1.86408303	     32.94305982	     -1.47373260	    -16.58681190	    -28.52436494	     -5.96546458	    -14.01962954	     -1.75022373	    -11.46470660	     -7.44287142	     -8.22921791	    -28.95789351	     -9.05843330	     10.47807223	     31.65584744	     -6.29839998	      1.69563541	     -8.43688041
